<svg xmlns="http://www.w3.org/2000/svg" viewBox="0 0 300 300" xml:space="preserve"><path fill="#FFDA88" d="M238.599 20.877H77.542c-6.042 0-10.933 4.897-10.933 10.939v15.962h10.76a5.377 5.377 0 0 1 5.38 5.38 5.377 5.377 0 0 1-5.38 5.38h-10.76v37.661h10.76a5.377 5.377 0 0 1 5.38 5.38 5.377 5.377 0 0 1-5.38 5.38h-10.76v37.661h10.76c2.974 0 5.38 2.407 5.38 5.38s-2.407 5.38-5.38 5.38h-10.76v37.661h10.76a5.377 5.377 0 0 1 5.38 5.38 5.377 5.377 0 0 1-5.38 5.38h-10.76v37.661h10.76c2.974 0 5.38 2.407 5.38 5.38s-2.407 5.38-5.38 5.38h-10.76v15.962c0 6.042 4.897 10.939 10.933 10.939h161.057c6.036 0 10.934-4.897 10.934-10.939V31.816c-.001-6.042-4.898-10.939-10.934-10.939z"/><path fill="#7FD3B9" d="M77.369 241.462a5.377 5.377 0 0 1 5.38 5.38 5.377 5.377 0 0 1-5.38 5.38h-21.52a5.377 5.377 0 0 1-5.38-5.38 5.377 5.377 0 0 1 5.38-5.38h21.52zM77.369 193.041a5.377 5.377 0 0 1 5.38 5.38 5.377 5.377 0 0 1-5.38 5.38h-21.52a5.377 5.377 0 0 1-5.38-5.38 5.377 5.377 0 0 1 5.38-5.38h21.52zM77.369 144.62a5.377 5.377 0 0 1 5.38 5.38 5.377 5.377 0 0 1-5.38 5.38h-21.52a5.377 5.377 0 0 1-5.38-5.38 5.377 5.377 0 0 1 5.38-5.38h21.52zM77.369 96.199a5.377 5.377 0 0 1 5.38 5.38 5.377 5.377 0 0 1-5.38 5.38h-21.52a5.377 5.377 0 0 1-5.38-5.38 5.377 5.377 0 0 1 5.38-5.38h21.52zM77.369 47.778a5.377 5.377 0 0 1 5.38 5.38 5.377 5.377 0 0 1-5.38 5.38h-21.52a5.377 5.377 0 0 1-5.38-5.38 5.377 5.377 0 0 1 5.38-5.38h21.52z"/><path fill="#BBEAD9" d="M61.228 53.158a5.377 5.377 0 0 1 5.38-5.38h-10.76a5.377 5.377 0 0 0-5.38 5.38 5.377 5.377 0 0 0 5.38 5.38h10.76a5.377 5.377 0 0 1-5.38-5.38zM61.228 101.579a5.377 5.377 0 0 1 5.38-5.38h-10.76a5.377 5.377 0 0 0-5.38 5.38 5.377 5.377 0 0 0 5.38 5.38h10.76a5.377 5.377 0 0 1-5.38-5.38zM61.228 150a5.377 5.377 0 0 1 5.38-5.38h-10.76c-2.974 0-5.38 2.407-5.38 5.38s2.407 5.38 5.38 5.38h10.76a5.377 5.377 0 0 1-5.38-5.38zM61.228 198.421a5.377 5.377 0 0 1 5.38-5.38h-10.76a5.377 5.377 0 0 0-5.38 5.38 5.377 5.377 0 0 0 5.38 5.38h10.76a5.377 5.377 0 0 1-5.38-5.38zM61.228 246.842a5.377 5.377 0 0 1 5.38-5.38h-10.76c-2.974 0-5.38 2.407-5.38 5.38s2.407 5.38 5.38 5.38h10.76a5.377 5.377 0 0 1-5.38-5.38z"/><circle fill="#E5E5E4" cx="166.14" cy="104.269" r="56.491"/><path fill="#EFEFEF" d="M120.409 104.269c0-29.383 22.44-53.507 51.111-56.221a57.552 57.552 0 0 0-5.38-.271c-31.198 0-56.491 25.293-56.491 56.491s25.293 56.491 56.491 56.491c1.818 0 3.609-.105 5.38-.271-28.671-2.712-51.111-26.836-51.111-56.219z"/><path fill="#7FD3B9" d="M187.078 109.324c-1.45-2.564-3.252-4.561-5.391-6.032-2.149-1.44-5.338-3.069-9.525-4.844-5.748-2.312-8.595-5.055-8.595-8.212 0-1.602.546-2.979 1.644-4.145 1.109-1.13 2.433-1.721 3.962-1.721 1.991 0 5.259 1.342 9.778 4.011l4.592-10.201c-2.774-4.014-9.331-6.56-14.711-6.174v-4.581c0-2.38-.158-4.311-5.38-4.311-5.223 0-5.38 1.931-5.38 4.311v5.283s-2.612.883-5.863 4.266c-3.563 3.696-4.261 9.93-4.261 14.201 0 8.569 7.13 12.263 8.832 13.555 1.681 1.282 4.45 2.785 7.812 4.24 6.909 2.958 10.103 5.291 10.103 8.643 0 1.613-.746 3.168-2.269 4.645-1.535 1.481-3.116 2.102-4.776 2.227-4.676.326-8.538-2.963-13.928-6.925l-7.235 10.13c4.928 5.832 11.585 8.469 11.585 8.596v4.303c0 2.39.83 4.313 5.38 4.313 4.287 0 5.38-1.923 5.38-4.313v-4.303c0-.053 7.65-.804 11.706-4.298 3.993-3.457 7.823-8.795 7.823-14.291-.001-3.015.172-5.789-1.283-8.373z"/><path fill="#E5E5E4" d="M109.649 236.082h21.52v43.041h-21.52z"/><path fill="#7FD3B9" d="M152.69 214.561h21.52v64.561h-21.52z"/><path fill="#FE6F80" d="M195.731 193.041h21.521v86.082h-21.521z"/><path fill="#FFE2A9" d="M77.369 155.38h-10.76v37.661h10.76a5.377 5.377 0 0 1 5.38 5.38V150a5.377 5.377 0 0 1-5.38 5.38zM77.369 252.222h-10.76v15.962c0 6.042 4.897 10.939 10.933 10.939h5.207v-32.281a5.377 5.377 0 0 1-5.38 5.38zM77.369 203.801h-10.76v37.661h10.76a5.377 5.377 0 0 1 5.38 5.38v-48.421a5.377 5.377 0 0 1-5.38 5.38zM77.369 106.959h-10.76v37.661h10.76a5.377 5.377 0 0 1 5.38 5.38v-48.421a5.377 5.377 0 0 1-5.38 5.38zM77.542 20.877c-6.042 0-10.933 4.897-10.933 10.939v15.962h10.76a5.377 5.377 0 0 1 5.38 5.38V20.877h-5.207zM77.369 58.538h-10.76v37.661h10.76a5.377 5.377 0 0 1 5.38 5.38V53.158a5.377 5.377 0 0 1-5.38 5.38z"/><g><path fill="#161616" d="M77.369 257.602h-21.52c-5.932 0-10.76-4.826-10.76-10.76s4.828-10.76 10.76-10.76h21.52c5.932 0 10.76 4.826 10.76 10.76s-4.829 10.76-10.76 10.76zm-21.521-10.76h21.52-21.52zM77.369 209.181h-21.52c-5.932 0-10.76-4.826-10.76-10.76s4.828-10.76 10.76-10.76h21.52c5.932 0 10.76 4.826 10.76 10.76s-4.829 10.76-10.76 10.76zm-21.521-10.76h21.52-21.52zM77.369 160.76h-21.52c-5.932 0-10.76-4.826-10.76-10.76s4.828-10.76 10.76-10.76h21.52c5.932 0 10.76 4.826 10.76 10.76s-4.829 10.76-10.76 10.76zM55.848 150h21.52-21.52zM77.369 112.339h-21.52c-5.932 0-10.76-4.826-10.76-10.76s4.828-10.76 10.76-10.76h21.52c5.932 0 10.76 4.826 10.76 10.76 0 5.935-4.829 10.76-10.76 10.76zm-21.521-10.76h21.52-21.52zM77.369 63.918h-21.52c-5.932 0-10.76-4.826-10.76-10.76s4.828-10.76 10.76-10.76h21.52c5.932 0 10.76 4.826 10.76 10.76s-4.829 10.76-10.76 10.76zm-21.521-10.76h21.52-21.52zM187.078 109.324c-1.45-2.564-3.252-4.561-5.391-6.032-2.149-1.44-5.338-3.069-9.525-4.844-5.748-2.312-8.595-5.055-8.595-8.212 0-1.602.546-2.979 1.644-4.145 1.109-1.13 2.433-1.721 3.962-1.721 1.991 0 5.259 1.342 9.778 4.011l4.592-10.201c-2.774-4.014-9.331-6.56-14.711-6.174v-4.581c0-2.38-.158-4.311-5.38-4.311-5.223 0-5.38 1.931-5.38 4.311v5.283s-2.612.883-5.863 4.266c-3.563 3.696-4.261 9.93-4.261 14.201 0 8.569 7.13 12.263 8.832 13.555 1.681 1.282 4.45 2.785 7.812 4.24 6.909 2.958 10.103 5.291 10.103 8.643 0 1.613-.746 3.168-2.269 4.645-1.535 1.481-3.116 2.102-4.776 2.227-4.676.326-8.538-2.963-13.928-6.925l-7.235 10.13c4.928 5.832 11.585 8.469 11.585 8.596v4.303c0 2.39.83 4.313 5.38 4.313 4.287 0 5.38-1.923 5.38-4.313v-4.303c0-.053 7.65-.804 11.706-4.298 3.993-3.457 7.823-8.795 7.823-14.291-.001-3.015.172-5.789-1.283-8.373z"/><path fill="#161616" d="M166.14 166.14c-34.114 0-61.871-27.754-61.871-61.871s27.757-61.871 61.871-61.871 61.871 27.754 61.871 61.871-27.756 61.871-61.871 61.871zm0-112.982c-28.183 0-51.111 22.928-51.111 51.111s22.928 51.111 51.111 51.111 51.111-22.928 51.111-51.111-22.928-51.111-51.111-51.111zM131.17 284.503h-21.52a5.378 5.378 0 0 1-5.38-5.38v-43.041a5.378 5.378 0 0 1 5.38-5.38h21.52a5.378 5.378 0 0 1 5.38 5.38v43.041a5.38 5.38 0 0 1-5.38 5.38zm-16.141-10.761h10.76v-32.281h-10.76v32.281zM174.211 284.503h-21.52a5.378 5.378 0 0 1-5.38-5.38v-64.561a5.378 5.378 0 0 1 5.38-5.38h21.52a5.378 5.378 0 0 1 5.38 5.38v64.561a5.38 5.38 0 0 1-5.38 5.38zm-16.141-10.761h10.76v-53.801h-10.76v53.801z"/><path fill="#161616" d="M238.598 284.503H77.542c-8.995 0-16.314-7.321-16.314-16.319v-15.962a5.378 5.378 0 0 1 5.38-5.38 5.378 5.378 0 0 1-5.38-5.38v-37.661a5.378 5.378 0 0 1 5.38-5.38 5.378 5.378 0 0 1-5.38-5.38V155.38a5.378 5.378 0 0 1 5.38-5.38 5.378 5.378 0 0 1-5.38-5.38v-37.661a5.378 5.378 0 0 1 5.38-5.38 5.378 5.378 0 0 1-5.38-5.38V58.538a5.378 5.378 0 0 1 5.38-5.38 5.378 5.378 0 0 1-5.38-5.38V31.816c0-8.997 7.319-16.319 16.314-16.319h161.057c8.995 0 16.314 7.322 16.314 16.319v21.342c0 2.971-2.406 5.38-5.38 5.38s-5.38-2.409-5.38-5.38V31.816a5.561 5.561 0 0 0-5.553-5.559H77.542a5.562 5.562 0 0 0-5.554 5.559v10.582h5.38c5.932 0 10.76 4.826 10.76 10.76s-4.828 10.76-10.76 10.76h-5.38v26.901h5.38c5.932 0 10.76 4.826 10.76 10.76 0 5.935-4.828 10.76-10.76 10.76h-5.38v26.901h5.38c5.932 0 10.76 4.826 10.76 10.76s-4.828 10.76-10.76 10.76h-5.38v26.901h5.38c5.932 0 10.76 4.826 10.76 10.76s-4.828 10.76-10.76 10.76h-5.38v26.901h5.38c5.932 0 10.76 4.826 10.76 10.76s-4.828 10.76-10.76 10.76h-5.38v10.582a5.561 5.561 0 0 0 5.554 5.559h161.057a5.561 5.561 0 0 0 5.553-5.559V74.679c0-2.971 2.406-5.38 5.38-5.38s5.38 2.409 5.38 5.38v193.505c0 8.997-7.319 16.319-16.314 16.319z"/><path fill="#161616" d="M217.251 284.503H195.73a5.378 5.378 0 0 1-5.38-5.38v-53.801a5.378 5.378 0 0 1 5.38-5.38 5.378 5.378 0 0 1 5.38 5.38v48.421h10.76v-75.321h-10.76v5.38a5.378 5.378 0 0 1-5.38 5.38 5.378 5.378 0 0 1-5.38-5.38v-10.76a5.378 5.378 0 0 1 5.38-5.38h21.521a5.378 5.378 0 0 1 5.38 5.38v86.082a5.378 5.378 0 0 1-5.38 5.379z"/></g></svg>